<svg xmlns="http://www.w3.org/2000/svg" viewBox="0 0 94 93.998"><defs><style>.a{fill:#383838;}.b{fill:#fe6900;}</style></defs><g transform="translate(1628 3170.156) rotate(180)"><ellipse class="a" cx="47" cy="46.999" rx="47" ry="46.999" transform="translate(1534 3076.158)"/><g transform="translate(1593.045 3105.497) rotate(90)"><path class="b" d="M33.793,15.455A2.722,2.722,0,0,1,34.6,17.3a2.3,2.3,0,0,1-.807,1.845l-2.537,2.422a2.722,2.722,0,0,1-1.845.807,2.075,2.075,0,0,1-1.73-.807l-10.5-10.38L6.8,21.568a2.722,2.722,0,0,1-1.845.807,2.3,2.3,0,0,1-1.845-.807L.577,19.146A3.191,3.191,0,0,1,0,17.3a2.3,2.3,0,0,1,.807-1.845L15.455.807A2.3,2.3,0,0,1,17.3,0a2.3,2.3,0,0,1,1.845.807Z" transform="translate(0 0)"/></g></g></svg>
