<svg id="Camada_1" data-name="Camada 1" xmlns="http://www.w3.org/2000/svg" viewBox="0 0 94 94">
    <defs>
        <style>.cls-1{fill:#383838;}.cls-2{fill:#fe6900;}</style>
    </defs>
    <title>blog-right-arrow</title>
    <circle class="cls-1" cx="47" cy="47" r="47"/>
    <path class="cls-2"
          d="M58.24,45.51a2.33,2.33,0,0,1,.81,1.85,2.3,2.3,0,0,1-.81,1.84L43.59,63.85a2.29,2.29,0,0,1-1.84.81,3.2,3.2,0,0,1-1.85-.58l-2.42-2.53a2.3,2.3,0,0,1-.81-1.85,2.69,2.69,0,0,1,.81-1.84L47.86,47.48,37.48,37a2.06,2.06,0,0,1-.81-1.73,2.69,2.69,0,0,1,.81-1.85l2.42-2.53a2.3,2.3,0,0,1,1.85-.81,2.69,2.69,0,0,1,1.84.81Z"
          transform="translate(0 0)"/>
</svg>
