<svg width="16" height="16" viewBox="0 0 16 16" fill="none" xmlns="http://www.w3.org/2000/svg">
<g opacity="1">
<path d="M8.00008 11.3333C7.63341 11.3333 7.33341 11.0333 7.33341 10.6667L7.33341 7.99999C7.33341 7.63332 7.63341 7.33332 8.00008 7.33332C8.36675 7.33332 8.66675 7.63332 8.66675 7.99999L8.66675 10.6667C8.66675 11.0333 8.36675 11.3333 8.00008 11.3333ZM8.00675 14.6667C11.6867 14.6667 14.6667 11.68 14.6667 7.99999C14.6667 4.31999 11.6867 1.33332 8.00675 1.33332C4.32008 1.33332 1.33341 4.31999 1.33341 7.99999C1.33341 11.68 4.32008 14.6667 8.00675 14.6667ZM8.00008 2.66666C10.9467 2.66666 13.3334 5.05332 13.3334 7.99999C13.3334 10.9467 10.9467 13.3333 8.00008 13.3333C5.05341 13.3333 2.66675 10.9467 2.66675 7.99999C2.66675 5.05332 5.05341 2.66666 8.00008 2.66666ZM7.33341 4.66666L8.66675 4.66666L8.66675 5.99999L7.33341 5.99999L7.33341 4.66666Z" fill="#fe6900"/>
</g>
</svg>
