<?xml version="1.0" encoding="utf-8"?>
<!-- Generator: Adobe Illustrator 23.0.6, SVG Export Plug-In . SVG Version: 6.00 Build 0)  -->
<svg version="1.1" id="Layer_1" xmlns="http://www.w3.org/2000/svg" x="0px" y="0px"
     viewBox="0 0 727.82 356.65" style="enable-background:new 0 0 727.82 356.65;" xml:space="preserve">
<style type="text/css">
	.st0{fill:#ffffff;}
  .st1{fill:#FF6B00;}
</style>
  <g>
	<g>
		<g>
			<g>
				<path class="st0" d="M452.96,65.38l121.48,176.66h-50.78L402.14,65.38H452.96z"/>
			</g>
		</g>
    <polygon class="st1" points="407.76,270.59 568.82,36.82 506.36,165.22 		"/>
    <polygon class="st0" points="407.76,270.59 568.82,36.82 471.1,140.92 		"/>
	</g>
    <path class="st0" d="M133.17,61.82c-29.32,0-48.51,16.65-56.48,30.41H75.6L73.43,65.8H34.69c0.72,15.2,1.45,32.22,1.45,52.49V242.1
		h44.53V138.2c0-5.07,0.72-10.5,2.17-14.12c4.71-13.39,17.02-26.07,34.75-26.07c24.26,0,33.67,19.19,33.67,44.53v99.56h44.53V137.49
		C195.8,81.74,163.94,61.82,133.17,61.82z"/>
    <path class="st0" d="M318.16,61.82c-56.48,0-86.16,45.98-86.16,94.85c0,53.94,33.67,89.06,90.87,89.06
		c25.34,0,46.34-4.71,61.54-11.22l-6.52-30.41c-13.76,4.71-28.24,7.96-48.87,7.96c-28.6,0-53.22-13.76-54.3-45.62h118.02
		c0.72-3.98,1.45-10.5,1.45-18.83C394.19,108.89,375.36,61.82,318.16,61.82z M352.19,135.32h-77.47
		c1.81-18.1,13.39-43.08,40.91-43.08C345.31,92.24,352.55,119.03,352.19,135.32z"/>
    <path class="st0" d="M650.14,20.55l-43.8,12.31V65.8h-24.98v33.31h24.98v82.9c0,23.17,4.34,39.46,14.12,49.6
		c8.33,9.05,21.72,14.48,38.37,14.48c13.76,0,26.73-2.42,33.67-5.54v-33.2c-5.07,1.45-11.58,2.17-19.55,2.17
		c-17.02,0-22.81-10.86-22.81-32.58V99.1h42.36V65.79h-42.36L650.14,20.55L650.14,20.55z"/>
    <g>
		<path class="st1" d="M48.37,312.31c-3.13-1.1-4.13-1.72-4.13-2.98c0-1.25,1.1-2.04,3.03-2.04c2.14,0,4.39,0.84,5.53,1.46
			l1.36-5.48c-1.57-0.78-4.18-1.51-7.15-1.51c-6.32,0-10.39,3.6-10.39,8.41c-0.05,3.03,1.98,5.9,7.31,7.68
			c2.92,0.99,3.71,1.62,3.71,2.98c0,1.31-0.99,2.09-3.39,2.09c-2.35,0-5.38-0.99-6.84-1.88L36,326.68c1.93,1.04,4.91,1.83,8.25,1.83
			c7.31,0,11.02-3.5,11.02-8.3C55.22,316.49,53.23,313.98,48.37,312.31z"/>
      <path class="st1" d="M81.01,301.77c-8.25,0-13.68,5.27-13.68,13.58c0,8.25,5.74,13.16,13.21,13.16c6.84,0,13.47-4.28,13.47-13.63
			C94.01,307.14,88.79,301.77,81.01,301.77z M80.75,322.81c-3.39,0-5.22-3.29-5.22-7.68c0-3.76,1.46-7.68,5.22-7.68
			c3.6,0,5.07,3.86,5.07,7.62C85.82,319.73,83.88,322.81,80.75,322.81z"/>
      <rect x="107.59" y="290.85" class="st1" width="7.94" height="37.07"/>
      <path class="st1" d="M154.69,302.39h-7.94v15.2c0,0.68-0.1,1.25-0.31,1.72c-0.47,1.25-1.78,2.77-3.97,2.77
			c-2.82,0-4.02-2.25-4.02-5.95V302.4h-7.94v14.99c0,7.89,3.76,11.12,8.98,11.12c4.6,0,7-2.61,7.99-4.18h0.16l0.37,3.6h6.89
			c-0.1-2.14-0.21-4.86-0.21-8.2L154.69,302.39L154.69,302.39z"/>
      <path class="st1" d="M183.26,307.93c2.09,0,3.5,0.37,4.44,0.78l1.25-5.9c-1.67-0.63-3.97-0.99-6.06-0.99
			c-9.5,0-14.62,6.11-14.62,13.58c0,7.05,4.07,11.8,10.7,12.79l-2.09,4.39c2.92,0.31,4.13,0.89,4.13,1.93
			c0,0.99-0.84,1.31-1.88,1.31c-0.94,0-2.14-0.31-2.92-0.73l-0.99,3.24c1.2,0.68,2.87,0.99,4.39,0.99c3.03,0,6.27-1.2,6.27-4.86
			c0-2.4-1.83-3.71-3.81-4.18l0.99-1.83c2.56-0.1,4.7-0.57,5.85-1.15l-0.94-5.85c-1.2,0.52-2.66,0.84-4.6,0.84
			c-3.81,0-6.94-2.51-6.94-7.21C176.36,310.9,179.08,307.93,183.26,307.93z"/>
      <path class="st1" d="M213.6,301.77c-8.25,0-13.68,5.27-13.68,13.58c0,8.25,5.74,13.16,13.21,13.16c6.84,0,13.47-4.28,13.47-13.63
			C226.6,307.14,221.38,301.77,213.6,301.77z M213.34,322.81c-3.39,0-5.22-3.29-5.22-7.68c0-3.76,1.46-7.68,5.22-7.68
			c3.6,0,5.07,3.86,5.07,7.62C218.4,319.73,216.47,322.81,213.34,322.81z"/>
      <path class="st1" d="M209.58,298.79c0.1-1.57,0.52-2.35,1.25-2.35c0.68,0,1.1,0.31,2.04,0.84c1.04,0.52,2.09,1.1,3.55,1.1
			c2.77,0,4.44-1.93,4.28-6.68h-3.65c-0.16,1.83-0.52,2.3-1.36,2.3c-0.63,0-1.36-0.52-2.19-0.99c-0.99-0.52-2.09-1.04-3.39-1.04
			c-2.66,0-4.44,2.45-4.28,6.84h3.75V298.79z"/>
      <path class="st1" d="M251.77,301.82c-8.88,0-12.9,7.15-12.9,13.63c0,7.99,4.96,13,13.63,13c3.45,0,6.63-0.52,9.24-1.62l-1.04-5.38
			c-2.14,0.73-4.33,1.1-7.05,1.1c-3.71,0-7-1.57-7.21-4.86h16.45c0.1-0.57,0.26-1.78,0.26-3.13
			C263.15,308.24,260.02,301.82,251.77,301.82z M246.39,312.26c0.21-2.09,1.57-5.17,4.91-5.17c3.66,0,4.49,3.24,4.49,5.17H246.39z"
      />
      <path class="st1" d="M287.49,312.31c-3.13-1.1-4.13-1.72-4.13-2.98c0-1.25,1.1-2.04,3.03-2.04c2.14,0,4.39,0.84,5.54,1.46
			l1.36-5.48c-1.57-0.78-4.18-1.51-7.15-1.51c-6.32,0-10.39,3.6-10.39,8.41c-0.05,3.03,1.98,5.9,7.31,7.68
			c2.92,0.99,3.71,1.62,3.71,2.98c0,1.31-0.99,2.09-3.39,2.09c-2.35,0-5.38-0.99-6.84-1.88l-1.41,5.64
			c1.93,1.04,4.91,1.83,8.25,1.83c7.31,0,11.02-3.5,11.02-8.3C294.33,316.49,292.34,313.98,287.49,312.31z"/>
      <rect x="327.12" y="302.39" class="st1" width="7.94" height="25.53"/>
      <path class="st1" d="M331.14,291.32c-2.56,0-4.23,1.72-4.23,3.97c0,2.19,1.62,3.97,4.13,3.97c2.66,0,4.28-1.78,4.28-3.97
			C335.27,293.05,333.7,291.32,331.14,291.32z"/>
      <path class="st1" d="M380.12,301.77c-1.88,0-3.45,0.47-4.86,1.25c-1.25,0.73-2.35,1.78-3.34,3.13h-0.1c-1.1-2.66-3.66-4.39-7-4.39
			c-4.33,0-6.63,2.4-7.73,4.07h-0.16l-0.31-3.45h-6.74c0.1,2.3,0.21,4.96,0.21,8.15v17.39h7.73v-14.88c0-0.68,0.05-1.41,0.31-2.04
			c0.47-1.25,1.67-2.82,3.71-2.82c2.56,0,3.71,2.19,3.71,5.38v14.36h7.73v-14.93c0-0.68,0.1-1.46,0.26-2.04
			c0.57-1.51,1.83-2.77,3.71-2.77c2.56,0,3.76,2.14,3.76,5.85v13.89h7.73v-15.04C388.74,305.21,385.03,301.77,380.12,301.77z"/>
      <path class="st1" d="M415.89,301.77c-8.25,0-13.68,5.27-13.68,13.58c0,8.25,5.74,13.16,13.21,13.16c6.84,0,13.47-4.28,13.47-13.63
			C428.9,307.14,423.67,301.77,415.89,301.77z M415.63,322.81c-3.39,0-5.22-3.29-5.22-7.68c0-3.76,1.46-7.68,5.22-7.68
			c3.6,0,5.07,3.86,5.07,7.62C420.7,319.73,418.77,322.81,415.63,322.81z"/>
      <path class="st1" d="M458.24,301.82c-3.55,0-6.21,1.41-7.73,3.6h-0.1v-14.57h-7.94v29.45c0,2.87-0.1,5.95-0.21,7.62H449l0.31-3.55
			h0.1c1.78,3.03,4.7,4.13,7.68,4.13c5.85,0,11.64-4.6,11.64-13.79C468.79,306.88,464.35,301.82,458.24,301.82z M455.21,322.24
			c-2.3,0-4.13-1.67-4.65-3.76c-0.1-0.42-0.16-0.89-0.16-1.41v-3.76c0-0.52,0.05-0.99,0.16-1.46c0.52-2.3,2.51-3.92,4.65-3.92
			c3.71,0,5.48,3.13,5.48,7.1C460.7,319.62,458.61,322.24,455.21,322.24z"/>
      <path class="st1" d="M486.39,291.32c-2.56,0-4.23,1.72-4.23,3.97c0,2.19,1.62,3.97,4.12,3.97c2.66,0,4.28-1.78,4.28-3.97
			C490.51,293.05,488.95,291.32,486.39,291.32z"/>
      <rect x="482.37" y="302.39" class="st1" width="7.94" height="25.53"/>
      <rect x="505.34" y="290.85" class="st1" width="7.94" height="37.07"/>
      <path class="st1" d="M532.39,291.32c-2.56,0-4.23,1.72-4.23,3.97c0,2.19,1.62,3.97,4.12,3.97c2.66,0,4.28-1.78,4.28-3.97
			C536.52,293.05,534.95,291.32,532.39,291.32z"/>
      <rect x="528.37" y="302.39" class="st1" width="7.94" height="25.53"/>
      <path class="st1" d="M572.6,312.84c0-6.06-2.66-11.07-11.17-11.07c-4.65,0-8.15,1.31-9.92,2.3l1.46,5.12
			c1.67-1.04,4.44-1.93,7.05-1.93c3.92,0,4.65,1.93,4.65,3.34v0.31c-9.03,0-14.99,3.13-14.99,9.76c0,4.07,3.08,7.83,8.25,7.83
			c3.03,0,5.64-1.1,7.31-3.13h0.16l0.47,2.56h7.15c-0.31-1.41-0.42-3.76-0.42-6.16V312.84z M564.93,318.63
			c0,0.47-0.05,0.94-0.16,1.36c-0.52,1.62-2.19,2.92-4.13,2.92c-1.78,0-3.13-0.99-3.13-3.03c0-3.03,3.24-4.02,7.42-4.02V318.63z"/>
      <path class="st1" d="M594.69,307.09h-0.21l-0.31-4.7h-6.79c0.16,2.19,0.21,4.65,0.21,8.41v17.13h7.94v-12.95
			c0-0.63,0.05-1.25,0.16-1.78c0.52-2.45,2.51-4.02,5.43-4.02c0.89,0,1.51,0.1,2.14,0.21v-7.47c-0.57-0.1-0.94-0.16-1.67-0.16
			C599.08,301.77,596,303.33,594.69,307.09z"/>
      <path class="st1" d="M620.12,291.32c-2.56,0-4.23,1.72-4.23,3.97c0,2.19,1.62,3.97,4.12,3.97c2.66,0,4.28-1.78,4.28-3.97
			C624.25,293.05,622.68,291.32,620.12,291.32z"/>
      <rect x="616.1" y="302.39" class="st1" width="7.94" height="25.53"/>
      <path class="st1" d="M660.33,312.84c0-6.06-2.66-11.07-11.17-11.07c-4.65,0-8.15,1.31-9.92,2.3l1.46,5.12
			c1.67-1.04,4.44-1.93,7.05-1.93c3.92,0,4.65,1.93,4.65,3.34v0.31c-9.03,0-14.99,3.13-14.99,9.76c0,4.07,3.08,7.83,8.25,7.83
			c3.03,0,5.64-1.1,7.31-3.13h0.16l0.47,2.56h7.15c-0.31-1.41-0.42-3.76-0.42-6.16V312.84z M652.65,318.63
			c0,0.47-0.05,0.94-0.16,1.36c-0.52,1.62-2.19,2.92-4.13,2.92c-1.78,0-3.13-0.99-3.13-3.03c0-3.03,3.24-4.02,7.42-4.02V318.63z"/>
      <path class="st1" d="M686.23,312.31c-3.13-1.1-4.13-1.72-4.13-2.98c0-1.25,1.1-2.04,3.03-2.04c2.14,0,4.39,0.84,5.53,1.46
			l1.36-5.48c-1.57-0.78-4.18-1.51-7.15-1.51c-6.32,0-10.39,3.6-10.39,8.41c-0.05,3.03,1.98,5.9,7.31,7.68
			c2.92,0.99,3.71,1.62,3.71,2.98c0,1.31-0.99,2.09-3.39,2.09c-2.35,0-5.38-0.99-6.84-1.88l-1.41,5.64
			c1.93,1.04,4.91,1.83,8.25,1.83c7.31,0,11.02-3.5,11.02-8.3C693.07,316.49,691.09,313.98,686.23,312.31z"/>
      <polygon class="st1" points="570.29,291.18 562.97,291.18 558.48,299.13 563.91,299.13 		"/>
	</g>
</g>
</svg>
