<svg xmlns="http://www.w3.org/2000/svg" viewBox="0 0 32.699 36.151"><defs><style>.a{fill:#fe6900;}</style></defs><path class="a" d="M27.249,25.614a5.4,5.4,0,0,0-3.633,1.453l-12.9-7.63a3.092,3.092,0,0,0,.182-1.272,3.091,3.091,0,0,0-.182-1.272l12.9-7.448A5.072,5.072,0,0,0,27.249,10.9,5.353,5.353,0,0,0,32.7,5.45a5.45,5.45,0,1,0-10.9,0,3.092,3.092,0,0,0,.182,1.272L9.083,14.17A5.072,5.072,0,0,0,5.45,12.716,5.353,5.353,0,0,0,0,18.166a5.353,5.353,0,0,0,5.45,5.45,5.072,5.072,0,0,0,3.633-1.453l12.9,7.63a2.3,2.3,0,0,0-.182,1.09,5.268,5.268,0,1,0,10.536,0A5.01,5.01,0,0,0,27.249,25.614Zm0-21.981A1.817,1.817,0,1,1,25.433,5.45,1.82,1.82,0,0,1,27.249,3.633ZM5.45,19.983a1.716,1.716,0,0,1-1.817-1.817A1.716,1.716,0,0,1,5.45,16.35a1.716,1.716,0,0,1,1.817,1.817A1.716,1.716,0,0,1,5.45,19.983ZM27.249,32.7a1.817,1.817,0,1,1,1.817-1.817A1.954,1.954,0,0,1,27.249,32.7Z"/></svg>
