<svg xmlns="http://www.w3.org/2000/svg" viewBox="0 0 22.267 22.267"><defs><style>.a{fill:#fe6900;}</style></defs><path class="a" d="M22.267,19.881a2.321,2.321,0,0,1-.689,1.7,2.24,2.24,0,0,1-1.7.689H2.386a2.321,2.321,0,0,1-1.7-.689A2.24,2.24,0,0,1,0,19.881V2.386A2.321,2.321,0,0,1,.689.689,2.24,2.24,0,0,1,2.386,0h17.5a2.321,2.321,0,0,1,1.7.689,2.24,2.24,0,0,1,.689,1.7ZM3.181,4.665A13.534,13.534,0,0,0,5.2,11.929a13.962,13.962,0,0,0,5.2,5.2,14.017,14.017,0,0,0,7.263,2.015.6.6,0,0,0,.424-.159,2.941,2.941,0,0,0,.318-.424l.742-3.234a.749.749,0,0,0-.053-.477.835.835,0,0,0-.371-.371l-3.5-1.484a.736.736,0,0,0-.477,0,1.86,1.86,0,0,0-.424.265L12.724,15a11.28,11.28,0,0,1-3.181-2.28,13.433,13.433,0,0,1-2.28-3.181L9.119,8.006a1.154,1.154,0,0,0,.265-.424.736.736,0,0,0,0-.477L7.9,3.605a.634.634,0,0,0-.371-.371A.642.642,0,0,0,7,3.181l-3.234.742a.824.824,0,0,0-.424.318A.705.705,0,0,0,3.181,4.665Z"/></svg>
