<?xml version="1.0" encoding="utf-8"?>
<!-- Generator: Adobe Illustrator 16.0.0, SVG Export Plug-In . SVG Version: 6.00 Build 0)  -->
<!DOCTYPE svg PUBLIC "-//W3C//DTD SVG 1.1//EN" "http://www.w3.org/Graphics/SVG/1.1/DTD/svg11.dtd">
<svg version="1.1" id="Camada_1" xmlns="http://www.w3.org/2000/svg" x="0px" y="0px"
     width="612px" height="612px" viewBox="0 0 612 612" enable-background="new 0 0 612 612" xml:space="preserve">
<g>
	<path fill="#FFFFFF" d="M306,609.5c-81.068,0-157.283-31.569-214.607-88.894C34.069,463.283,2.5,387.067,2.5,306
		S34.069,148.717,91.393,91.393S224.932,2.5,306,2.5c81.067,0,157.283,31.569,214.606,88.893
		C577.931,148.717,609.5,224.933,609.5,306s-31.569,157.283-88.894,214.606C463.283,577.931,387.067,609.5,306,609.5z"/>
	<path fill="#fe6900" d="M306,5c40.637,0,80.056,7.958,117.161,23.652c35.843,15.16,68.033,36.864,95.678,64.509
		c27.646,27.645,49.349,59.835,64.509,95.678C599.042,225.944,607,265.363,607,306s-7.958,80.056-23.652,117.161
		c-15.16,35.843-36.863,68.033-64.509,95.678c-27.645,27.646-59.835,49.349-95.678,64.509C386.056,599.042,346.637,607,306,607
		s-80.056-7.958-117.161-23.652c-35.842-15.16-68.033-36.863-95.678-64.509c-27.645-27.645-49.349-59.835-64.509-95.678
		C12.958,386.056,5,346.637,5,306s7.958-80.056,23.652-117.161c15.16-35.842,36.864-68.033,64.509-95.678
		c27.645-27.645,59.835-49.349,95.678-64.509C225.944,12.958,265.363,5,306,5 M306,0C137.001,0,0,137.001,0,306s137.001,306,306,306
		s306-137.001,306-306S474.999,0,306,0L306,0z"/>
</g>
</svg>
