<svg xmlns="http://www.w3.org/2000/svg" viewBox="0 0 23.2 25.056"><defs><style>.a{fill:#ffffff;}</style></defs><path class="a" d="M54.909,52h-.073c0,1.5-.808,2.709-1.835,2.709v.075c1.028,0,1.835,1.2,1.835,2.709h.073c0-1.5.808-2.709,1.835-2.709v-.075C55.753,54.709,54.909,53.5,54.909,52Z" transform="translate(-33.544 -32.437)"/><path class="a" d="M54.835,20.393h.073c0-1.5.808-2.709,1.835-2.709v-.075c-1.028,0-1.835-1.2-1.835-2.709h-.073c0,1.5-.808,2.709-1.835,2.709v.075C54.028,17.684,54.835,18.888,54.835,20.393Z" transform="translate(-33.544 -9.294)"/><path class="a" d="M17.914,19H16.225a10.275,10.275,0,0,1-1.542,5.643H5.4A5.473,5.473,0,0,0,0,30.174v4.251H1.468V30.174A3.982,3.982,0,0,1,5.4,26.148h7.966a3.949,3.949,0,0,1-2.423.9v1.731c2.9,0,5.286,3.612,5.286,8.051h1.689c0-4.439,2.386-8.051,5.286-8.051V27.051C20.3,27.051,17.914,23.439,17.914,19ZM17.07,32.845a8.451,8.451,0,0,0-3.708-4.928,8.451,8.451,0,0,0,3.708-4.928,8.451,8.451,0,0,0,3.708,4.928A8.6,8.6,0,0,0,17.07,32.845Z" transform="translate(0 -11.852)"/><path class="a" d="M15.323,10.91a5.394,5.394,0,0,0,5.323-5.455A5.324,5.324,0,1,0,10,5.455,5.394,5.394,0,0,0,15.323,10.91Zm0-9.406a3.9,3.9,0,0,1,3.854,3.95,3.856,3.856,0,1,1-7.709,0A3.9,3.9,0,0,1,15.323,1.5Z" transform="translate(-6.329 0)"/></svg>