<svg xmlns="http://www.w3.org/2000/svg" width="73.313" height="73.45" viewBox="0 0 73.313 73.45">
  <g id="Group_852" data-name="Group 852" transform="translate(-0.15 0.05)">
    <path id="Path_267" data-name="Path 267" d="M73,31.7a1.45,1.45,0,0,0-2.1,0l-1.7,1.7V5.7a1.538,1.538,0,0,0-1.5-1.5H40.1l1.7-1.7a1.45,1.45,0,0,0,0-2.1,1.45,1.45,0,0,0-2.1,0L35.5,4.6a1.45,1.45,0,0,0,0,2.1l4.2,4.2a1.712,1.712,0,0,0,2.2,0,1.45,1.45,0,0,0,0-2.1L40.2,7.1H66.3V33.2l-1.7-1.7a1.485,1.485,0,0,0-2.1,2.1l4.2,4.2a1.712,1.712,0,0,0,2.2,0l4.2-4.2A1.305,1.305,0,0,0,73,31.7Z" fill="#fafafa"/>
    <path id="Path_268" data-name="Path 268" d="M33.8,62.4a1.485,1.485,0,1,0-2.1,2.1l1.7,1.7H7.2V40.1l1.7,1.7a1.5,1.5,0,0,0,1.1.4,1.5,1.5,0,0,0,1.1-.4,1.45,1.45,0,0,0,0-2.1L6.9,35.5a1.45,1.45,0,0,0-2.1,0L.6,39.7a1.45,1.45,0,0,0,0,2.1,1.45,1.45,0,0,0,2.1,0l1.7-1.7V67.7a1.538,1.538,0,0,0,1.5,1.5H33.5l-1.7,1.7a1.45,1.45,0,0,0,0,2.1A1.712,1.712,0,0,0,34,73l4.2-4.2a1.45,1.45,0,0,0,0-2.1Z" fill="#fafafa"/>
    <path id="Path_269" data-name="Path 269" d="M46.7,35.2H38.2V26.7a1.5,1.5,0,0,0-3,0v8.5H26.7a1.5,1.5,0,0,0,0,3h8.5v8.5a1.5,1.5,0,0,0,3,0V38.2h8.5a1.538,1.538,0,0,0,1.5-1.5A1.473,1.473,0,0,0,46.7,35.2Z" fill="#fafafa"/>
  </g>
</svg>
