<svg xmlns="http://www.w3.org/2000/svg" viewBox="0 0 28.894 25.627"><defs><style>.a{fill:#fe6900;}</style></defs><g transform="translate(-0.088 8.059)"><path class="a" d="M26.171,1.744A7.492,7.492,0,0,1,28.586,5.4a8.343,8.343,0,0,1,.181,4.387,7.975,7.975,0,0,1-2.052,3.778L15.849,25.019a1.882,1.882,0,0,1-2.656,0L2.328,13.625A7.468,7.468,0,0,1,.276,9.787,9.015,9.015,0,0,1,.457,5.4,7.492,7.492,0,0,1,2.872,1.744,7.537,7.537,0,0,1,6.312.1a7.386,7.386,0,0,1,3.8.3,7.274,7.274,0,0,1,3.26,2.133l1.147,1.1,1.147-1.158A8.664,8.664,0,0,1,18.928.342a8.039,8.039,0,0,1,3.8-.3A7.077,7.077,0,0,1,26.171,1.744Z" transform="translate(0 -8)"/></g></svg>
