<svg xmlns="http://www.w3.org/2000/svg" viewBox="0 0 46.543 45.893"><defs><style>.a{fill:#fe6900;}</style></defs><path class="a" d="M40.143,0H6.4A6.394,6.394,0,0,0,0,6.4V34.325a6.394,6.394,0,0,0,6.4,6.4H28.6a27.908,27.908,0,0,1,15.9,4.945A1.308,1.308,0,0,0,46.543,44.6V6.4A6.394,6.394,0,0,0,40.143,0ZM12.7,10.909a2.036,2.036,0,1,1-2.036,2.036A2.049,2.049,0,0,1,12.7,10.909ZM23.029,32.435A12.28,12.28,0,0,1,10.763,20.169h3.394a8.872,8.872,0,0,0,17.745,0H35.3A12.249,12.249,0,0,1,23.029,32.435ZM33.841,14.981a2.036,2.036,0,1,1,2.036-2.036A2.049,2.049,0,0,1,33.841,14.981Z"/></svg>
