<svg xmlns="http://www.w3.org/2000/svg" viewBox="0 0 21.345 21.488"><defs><style>.a{fill:#d04747;}</style></defs><path class="a" d="M14.672,10.647,21,4.323a1.128,1.128,0,0,0,0-1.581L18.7.3a1.128,1.128,0,0,0-1.581,0L10.647,6.766,4.323.3A1.128,1.128,0,0,0,2.742.3L.3,2.742a1.128,1.128,0,0,0,0,1.581l6.468,6.468L.3,17.259a1.128,1.128,0,0,0,0,1.581l2.3,2.3a1.128,1.128,0,0,0,1.581,0l6.468-6.468,6.468,6.468a1.128,1.128,0,0,0,1.581,0l2.3-2.3a1.128,1.128,0,0,0,0-1.581Z" transform="translate(0.025 0.025)"/></svg>