<svg width="21" height="18" viewBox="0 0 21 18" fill="none" xmlns="http://www.w3.org/2000/svg">
<path d="M21 3H17.925C17.55 1.275 16.05 0 14.25 0C12.45 0 10.95 1.275 10.575 3H0V4.5H10.575C10.95 6.225 12.45 7.5 14.25 7.5C16.05 7.5 17.55 6.225 17.925 4.5H21V3ZM14.25 6C12.975 6 12 5.025 12 3.75C12 2.475 12.975 1.5 14.25 1.5C15.525 1.5 16.5 2.475 16.5 3.75C16.5 5.025 15.525 6 14.25 6ZM0 15H3.075C3.45 16.725 4.95 18 6.75 18C8.55 18 10.05 16.725 10.425 15H21V13.5H10.425C10.05 11.775 8.55 10.5 6.75 10.5C4.95 10.5 3.45 11.775 3.075 13.5H0V15ZM6.75 12C8.025 12 9 12.975 9 14.25C9 15.525 8.025 16.5 6.75 16.5C5.475 16.5 4.5 15.525 4.5 14.25C4.5 12.975 5.475 12 6.75 12Z" fill="white"/>
</svg>
