<svg xmlns="http://www.w3.org/2000/svg" width="22" height="22" viewBox="0 0 22 22">
  <path id="Path_232" data-name="Path 232" d="M18.975,0H3.025A3.044,3.044,0,0,0,0,3.068V16.455a3.044,3.044,0,0,0,3.025,3.068h10.5a13.063,13.063,0,0,1,7.517,2.371A.618.618,0,0,0,22,21.382V3.068A3.044,3.044,0,0,0,18.975,0ZM6,5.229a.976.976,0,1,1-.963.976A.975.975,0,0,1,6,5.229Zm4.881,10.319a5.846,5.846,0,0,1-5.8-5.88h1.6a4.194,4.194,0,1,0,8.388,0h1.6A5.831,5.831,0,0,1,10.885,15.548ZM16,7.182a.976.976,0,1,1,.962-.976A.975.975,0,0,1,16,7.182Z" transform="translate(0 0)" fill="#fe6900"/>
</svg>
