<svg xmlns="http://www.w3.org/2000/svg" width="27.354" height="27.354" viewBox="0 0 27.354 27.354">
  <path id="Path_407" data-name="Path 407" d="M221.2,1.2V28.553h27.354V1.2Zm25.11,1.181-6.455,15.231a3.059,3.059,0,0,0-.63-.079,2.571,2.571,0,0,0-1.456.472l-4.8-5a2.543,2.543,0,0,0,.394-1.338,2.48,2.48,0,0,0-4.959,0,2.534,2.534,0,0,0,.827,1.85l-6.848,13.145V2.381Zm-7.084,16.294a1.3,1.3,0,1,1-1.3,1.3A1.31,1.31,0,0,1,239.226,18.675Zm-9.643-7.006a1.3,1.3,0,1,1,1.3,1.3A1.31,1.31,0,0,1,229.583,11.669Zm-6.258,15.7,6.927-13.3a3.445,3.445,0,0,0,.63.079,2.442,2.442,0,0,0,1.259-.354l4.88,5.077a2.534,2.534,0,0,0-.276,1.1,2.48,2.48,0,0,0,4.959,0,2.534,2.534,0,0,0-.827-1.85l6.455-15.271v24.48H223.325Z" transform="translate(-221.2 -1.2)" fill="#575656"/>
</svg>
