<svg id="Group_1709" data-name="Group 1709" xmlns="http://www.w3.org/2000/svg" width="34.766" height="27.548" viewBox="0 0 34.766 27.548">
  <path id="Path_405" data-name="Path 405" d="M31.162,28.254H3.612a.6.6,0,0,1-.59-.512L-.009,1.373A.608.608,0,0,1,.345.743a.632.632,0,0,1,.708.2L8.964,11.33,16.915.94a.643.643,0,0,1,.945,0L25.77,11.33,33.681.94a.661.661,0,0,1,.708-.2.608.608,0,0,1,.354.63L31.713,27.742A.557.557,0,0,1,31.162,28.254ZM4.123,27.073H30.611L33.327,3.341l-7.084,9.328a.643.643,0,0,1-.945,0L17.387,2.278l-7.95,10.39a.643.643,0,0,1-.945,0L1.408,3.341Z" transform="translate(0.015 -0.706)" fill="#575656"/>
</svg>
