<svg xmlns="http://www.w3.org/2000/svg" width="29.518" height="28.141" viewBox="0 0 29.518 28.141">
  <path id="Path_406" data-name="Path 406" d="M405.395,10.941,399.963.315A.614.614,0,0,0,399.452,0H381.937a.527.527,0,0,0-.512.315l-5.431,10.627a.6.6,0,0,0,.079.669l14.169,16.333a.575.575,0,0,0,.866,0L405.277,11.61A.605.605,0,0,0,405.395,10.941Zm-9.643.827L390.675,24.8l-5.038-13.067h10.115Zm-9.958-1.259,4.88-8.462,4.88,8.462Zm-1.456,1.181,5.313,13.775L377.687,11.689h6.651Zm12.673,0h6.651L391.7,25.464Zm6.809-1.181h-6.888l-5.392-9.328h7.517ZM382.292,1.181h7.517l-5.392,9.328h-6.888Z" transform="translate(-375.926)" fill="#575656"/>
</svg>
