<svg xmlns="http://www.w3.org/2000/svg" width="22.945" height="23" viewBox="0 0 22.945 23">
  <path id="Path_49" data-name="Path 49" d="M19.55,3.34a12.1,12.1,0,0,1,2.519,3.724,10.724,10.724,0,0,1,.876,4.326,10.89,10.89,0,0,1-1.588,5.7,11.811,11.811,0,0,1-4.217,4.162,11.034,11.034,0,0,1-5.75,1.533,10.785,10.785,0,0,1-5.421-1.369L0,23l1.643-5.914A10.841,10.841,0,0,1,.11,11.39,10.841,10.841,0,0,1,1.643,5.7,11.659,11.659,0,0,1,5.8,1.533,10.841,10.841,0,0,1,11.5,0a10.541,10.541,0,0,1,4.326.876A12.967,12.967,0,0,1,19.55,3.34ZM11.5,20.919a9.592,9.592,0,0,0,8.269-4.71,8.909,8.909,0,0,0,1.314-4.764,9.524,9.524,0,0,0-.767-3.614A9.334,9.334,0,0,0,18.181,4.71a9.519,9.519,0,0,0-3.067-2.081A9.057,9.057,0,0,0,11.5,1.917a9.682,9.682,0,0,0-4.764,1.26,9.474,9.474,0,0,0-3.45,3.45,8.867,8.867,0,0,0-1.26,4.764A9.175,9.175,0,0,0,3.5,16.429l.219.383-.986,3.45,3.614-.931.383.219A8.954,8.954,0,0,0,11.5,20.919Zm5.2-7.174.164.11c.219.11.383.164.438.274s.055.219,0,.493a4.562,4.562,0,0,1-.219.821,2.013,2.013,0,0,1-.821.876,3.578,3.578,0,0,1-1.1.493,5.72,5.72,0,0,1-1.369,0,11.689,11.689,0,0,1-2.081-.712,11.393,11.393,0,0,1-4.764-4.217l-.11-.11a5.051,5.051,0,0,1-1.15-2.9,3.324,3.324,0,0,1,.931-2.3l.055-.055a1.151,1.151,0,0,1,.767-.383h.6c.11,0,.274,0,.329.055a.768.768,0,0,1,.219.383l.876,2.081a.553.553,0,0,1,.055.493,3.6,3.6,0,0,1-.657.931c-.11.11-.219.274-.274.329s0,.164.11.274a6.555,6.555,0,0,0,1.7,2.081,11.543,11.543,0,0,0,2.136,1.26c.274.11.493.11.6-.055a9.452,9.452,0,0,0,.931-1.15.364.364,0,0,1,.274-.219,1.069,1.069,0,0,1,.383.055A8.788,8.788,0,0,0,16.7,13.745Z" fill="#fe6900"/>
</svg>
