<svg xmlns="http://www.w3.org/2000/svg" width="29.6" height="20.701" viewBox="0 0 29.6 20.701">
  <g id="Group_930" data-name="Group 930" transform="translate(-198.7 -76.699)">
    <g id="Group_703" data-name="Group 703">
      <path id="Path_189" data-name="Path 189" d="M205.6,97.4a4.118,4.118,0,0,1-4.1-4.1,4.055,4.055,0,0,1,4.1-4.1,4.1,4.1,0,1,1,0,8.2Zm0-6.3a2.2,2.2,0,1,0,2.2,2.2A2.22,2.22,0,0,0,205.6,91.1Z" fill="#fe6900"/>
    </g>
    <g id="Group_704" data-name="Group 704">
      <path id="Path_190" data-name="Path 190" d="M221.1,97.4a4.118,4.118,0,0,1-4.1-4.1,4.055,4.055,0,0,1,4.1-4.1,4.1,4.1,0,1,1,0,8.2Zm0-6.3a2.2,2.2,0,1,0,2.2,2.2A2.22,2.22,0,0,0,221.1,91.1Z" fill="#fe6900"/>
    </g>
    <g id="Group_705" data-name="Group 705">
      <path id="Path_191" data-name="Path 191" d="M218,94.4h-9.3a.9.9,0,0,1,0-1.8H218a.9.9,0,0,1,0,1.8Z" fill="#fe6900"/>
    </g>
    <g id="Group_706" data-name="Group 706">
      <path id="Path_192" data-name="Path 192" d="M225.9,94.4h-1.6a.9.9,0,0,1,0-1.8h1.6a.43.43,0,0,0,.4-.4V87a.664.664,0,0,0-.4-.5l-5.6-.7a.858.858,0,0,1-.7-.6l-2.7-6.4a.55.55,0,0,0-.5-.3h-13c-.2,0-.4.1-.4.3l-2.3,5.7a4.253,4.253,0,0,0-.2,1.1v6.5a.43.43,0,0,0,.4.4h1.6a.9.9,0,0,1,0,1.8h-1.6a2.22,2.22,0,0,1-2.2-2.2V85.6a3.922,3.922,0,0,1,.4-1.8l2.3-5.7a2.26,2.26,0,0,1,2.1-1.4h13a2.388,2.388,0,0,1,2.2,1.5l2.5,5.9,5.1.6a2.208,2.208,0,0,1,2,2.3v5.2A2.557,2.557,0,0,1,225.9,94.4Z" fill="#fe6900"/>
    </g>
    <g id="Group_707" data-name="Group 707">
      <path id="Path_193" data-name="Path 193" d="M220.3,85.8H199.8a.9.9,0,0,1,0-1.8h20.5a.9.9,0,0,1,.9.9A.839.839,0,0,1,220.3,85.8Z" fill="#fe6900"/>
    </g>
    <g id="Group_708" data-name="Group 708">
      <path id="Path_194" data-name="Path 194" d="M210.9,85.5a.9.9,0,0,1-.9-.9v-7a.9.9,0,1,1,1.8,0v7A.9.9,0,0,1,210.9,85.5Z" fill="#fe6900"/>
    </g>
  </g>
</svg>
