<svg xmlns="http://www.w3.org/2000/svg" width="25.8" height="25.801" viewBox="0 0 25.8 25.801">
  <g id="Group_1655" data-name="Group 1655" transform="translate(-300.901 -1.1)">
    <g id="Group_681" data-name="Group 681">
      <path id="Path_171" data-name="Path 171" d="M313.8,26.9A12.9,12.9,0,1,1,326.7,14,12.931,12.931,0,0,1,313.8,26.9Zm0-23.8a11,11,0,1,0,11,11A10.968,10.968,0,0,0,313.8,3.1Z" fill="#fe6900"/>
    </g>
    <g id="Group_682" data-name="Group 682">
      <path id="Path_172" data-name="Path 172" d="M314.1,21H313a3.372,3.372,0,0,1-3.4-3.4.9.9,0,1,1,1.8,0,1.538,1.538,0,0,0,1.5,1.5H314a1.973,1.973,0,0,0,1.9-2.2A1.736,1.736,0,0,0,314,15h-.7a3.465,3.465,0,0,1-3.7-3.7,3.8,3.8,0,0,1,3.7-4.1h1.1a3.372,3.372,0,0,1,3.4,3.4.9.9,0,1,1-1.8,0,1.538,1.538,0,0,0-1.5-1.5h-1.1a1.973,1.973,0,0,0-1.9,2.2,1.736,1.736,0,0,0,1.9,1.9h.7a3.465,3.465,0,0,1,3.7,3.7A3.686,3.686,0,0,1,314.1,21Z" fill="#fe6900"/>
    </g>
    <g id="Group_683" data-name="Group 683">
      <path id="Path_173" data-name="Path 173" d="M313.8,9a.9.9,0,0,1-.9-.9V5.7a.9.9,0,1,1,1.8,0V8.2A.882.882,0,0,1,313.8,9Z" fill="#fe6900"/>
    </g>
    <g id="Group_684" data-name="Group 684">
      <path id="Path_174" data-name="Path 174" d="M313.8,23.4a.9.9,0,0,1-.9-.9V20a.9.9,0,1,1,1.8,0v2.5A.9.9,0,0,1,313.8,23.4Z" fill="#fe6900"/>
    </g>
  </g>
</svg>
