<svg xmlns="http://www.w3.org/2000/svg" width="27.5" height="26.9" viewBox="0 0 27.5 26.9">
  <g id="Group_929" data-name="Group 929" transform="translate(0 -73.1)">
    <g id="Group_686" data-name="Group 686">
      <path id="Path_175" data-name="Path 175" d="M17.8,98.6H9.6a7.81,7.81,0,0,1-7.8-7.8V88.9a.9.9,0,0,1,.9-.9h22a.9.9,0,0,1,.9.9v1.9A7.747,7.747,0,0,1,17.8,98.6ZM3.6,89.9v1a6.018,6.018,0,0,0,6,6h8.2a6.018,6.018,0,0,0,6-6v-1Z" fill="#fe6900"/>
    </g>
    <g id="Group_687" data-name="Group 687">
      <path id="Path_176" data-name="Path 176" d="M26.6,89.9H.9A.9.9,0,0,1,0,89a.987.987,0,0,1,.9-1H26.6a.9.9,0,0,1,.9.9A.987.987,0,0,1,26.6,89.9Z" fill="#fe6900"/>
    </g>
    <g id="Group_690" data-name="Group 690">
      <g id="Group_688" data-name="Group 688">
        <path id="Path_177" data-name="Path 177" d="M4.6,100a.764.764,0,0,1-.5-.2,1.091,1.091,0,0,1-.3-1.3l1.4-2a.83.83,0,0,1,1.2-.2,1.091,1.091,0,0,1,.3,1.3l-1.4,2A.67.67,0,0,1,4.6,100Z" fill="#fe6900"/>
      </g>
      <g id="Group_689" data-name="Group 689">
        <path id="Path_178" data-name="Path 178" d="M22.9,100a.909.909,0,0,1-.8-.4l-1.4-2a.943.943,0,1,1,1.6-1l1.4,2a.889.889,0,0,1-.3,1.3A1.087,1.087,0,0,1,22.9,100Z" fill="#fe6900"/>
      </g>
    </g>
    <g id="Group_691" data-name="Group 691">
      <path id="Path_179" data-name="Path 179" d="M24.7,89.9H18.5a.9.9,0,0,1-.9-.9.987.987,0,0,1,.9-1h5.3V77.1a2.2,2.2,0,0,0-4.4,0,.9.9,0,1,1-1.8,0,4,4,0,0,1,8,0V88.9A.987.987,0,0,1,24.7,89.9Z" fill="#fe6900"/>
    </g>
    <g id="Group_692" data-name="Group 692">
      <path id="Path_180" data-name="Path 180" d="M20.4,82.3a.367.367,0,0,1-.3-.1l-6.2-2.5a1.205,1.205,0,0,1-.5-.5.616.616,0,0,1,.1-.7,4.382,4.382,0,0,1,3.8-2.3,4.268,4.268,0,0,1,4.3,4.3,3.6,3.6,0,0,1-.2,1.1c-.1.3-.2.5-.5.6A.9.9,0,0,1,20.4,82.3Zm-4.7-3.8,3.9,1.6a2.376,2.376,0,0,0-2.4-2A1.913,1.913,0,0,0,15.7,78.5Z" fill="#fe6900"/>
    </g>
    <g id="Group_693" data-name="Group 693">
      <path id="Path_181" data-name="Path 181" d="M21.6,82.7a.367.367,0,0,1-.3-.1l-8.5-3.4a.919.919,0,1,1,.7-1.7L22,80.9a.883.883,0,0,1,.5,1.2A1.069,1.069,0,0,1,21.6,82.7Z" fill="#fe6900"/>
    </g>
  </g>
</svg>
